<?xml version="1.0" encoding="utf-8"?>
<!-- Generator: Adobe Illustrator 19.1.0, SVG Export Plug-In . SVG Version: 6.00 Build 0)  -->
<svg version="1.1" id="Layer_1" xmlns="http://www.w3.org/2000/svg" xmlns:xlink="http://www.w3.org/1999/xlink" x="0px" y="0px"
	 viewBox="0 0 72 72" style="enable-background:new 0 0 72 72;" xml:space="preserve">
<style type="text/css">
	.st0{fill:#FFFFFF;}
	.st1{fill:#F9EC31;}
	.st2{fill:#004876;}
</style>
<path class="st0" d="M36.7,1.1l27.9,19.6c0.1,0,0.1,0.1,0.1,0.2L64.7,41c0,0.1,0,0.1-0.1,0.2L36.9,61L36.7,1.1z"/>
<g>
	<path class="st1" d="M59.9,20.9c-0.5-0.4-1.2-0.4-1.9-0.3c-0.8,0.1-1.5,0.3-3.5-0.2c-0.3-0.1-0.6-0.1-0.9-0.2
		c-3.2-0.5-6.8,0.7-9.5,3.3c-0.1,0.1-0.1,0.1-0.2,0.2c0,0,0,0,0,0c0,0,0,0,0,0c-0.1,0.1-0.1,0.1-0.2,0.2c-2.6,2.7-3.7,6.3-3.2,9.5
		c0,0.3,0.1,0.6,0.2,0.9c0.5,1.9,0.4,2.6,0.3,3.5c-0.1,0.7-0.1,1.5,0.3,1.9c0,0,0,0,0,0l0,0l0,0c0,0,0,0,0,0
		c0.5,0.4,1.2,0.4,1.9,0.3c0.8-0.1,1.5-0.3,3.5,0.2c0.3,0.1,0.6,0.1,0.9,0.2c3.2,0.5,6.8-0.7,9.5-3.3c0.1-0.1,0.1-0.1,0.2-0.2
		c0,0,0,0,0,0c0,0,0,0,0,0c0.1-0.1,0.1-0.1,0.2-0.2c2.6-2.7,3.7-6.3,3.2-9.5c0-0.3-0.1-0.6-0.2-0.9c-0.5-1.9-0.4-2.6-0.3-3.5
		C60.4,22.2,60.4,21.4,59.9,20.9C60,20.9,59.9,20.9,59.9,20.9L59.9,20.9L59.9,20.9C59.9,20.9,59.9,20.9,59.9,20.9z"/>
	<g id="LEMON_7_">
		<path id="lemon_12_" class="st2" d="M52.2,20c0.5,0,1,0,1.4,0.1c0.3,0,0.6,0.1,0.9,0.2c1.1,0.3,1.7,0.4,2.3,0.4
			c0.4,0,0.8-0.1,1.2-0.1c0.2,0,0.4,0,0.7,0c0.5,0,1,0.1,1.3,0.4c0,0,0,0,0,0l0,0l0,0c0,0,0,0,0,0c0.4,0.4,0.4,1.2,0.3,1.9
			c-0.1,0.8-0.2,1.5,0.3,3.5c0.1,0.3,0.1,0.6,0.2,0.9c0.5,3.2-0.6,6.8-3.2,9.5c-0.1,0.1-0.1,0.1-0.2,0.2c0,0,0,0,0,0c0,0,0,0,0,0
			c-0.1,0.1-0.1,0.1-0.2,0.2c-2.3,2.2-5.2,3.4-8,3.4c-0.5,0-1,0-1.4-0.1c-0.3,0-0.6-0.1-0.9-0.2c-1.1-0.3-1.7-0.4-2.3-0.4
			c-0.4,0-0.8,0.1-1.2,0.1c-0.2,0-0.4,0-0.7,0c-0.5,0-1-0.1-1.3-0.4c0,0,0,0,0,0l0,0l0,0c0,0,0,0,0,0c-0.4-0.4-0.4-1.2-0.3-1.9
			c0.1-0.8,0.2-1.5-0.3-3.5c-0.1-0.3-0.1-0.6-0.2-0.9c-0.5-3.2,0.6-6.8,3.2-9.5c0.1-0.1,0.1-0.1,0.2-0.2c0,0,0,0,0,0c0,0,0,0,0,0
			c0.1-0.1,0.1-0.1,0.2-0.2C46.4,21.2,49.4,20,52.2,20 M43.1,35.4C43.1,35.4,43.1,35.4,43.1,35.4c0.2,0,0.3-0.1,0.4-0.2
			c0.1-0.1,0.2-0.3,0.1-0.5c0-0.2-0.1-0.4-0.1-0.6c0,0,0,0,0,0c-0.1-0.2-0.1-0.5-0.2-0.7c-0.1-0.2-0.1-0.4-0.1-0.6
			c-0.4-2.6,0.6-5.4,2.6-7.6c0.2-0.2,0.2-0.5,0-0.7c-0.1-0.1-0.2-0.1-0.4-0.1c-0.1,0-0.3,0.1-0.4,0.2c-2.3,2.4-3.3,5.5-2.9,8.4
			c0,0.2,0.1,0.5,0.2,0.7c0.1,0.2,0.1,0.5,0.2,0.7c0,0,0,0,0,0c0,0.2,0.1,0.4,0.1,0.5C42.6,35.3,42.8,35.4,43.1,35.4 M52.2,19.2
			L52.2,19.2c-3.1,0-6.2,1.3-8.6,3.6c-0.1,0.1-0.1,0.1-0.2,0.2c0,0,0,0,0,0c0,0,0,0,0,0c-0.1,0.1-0.1,0.1-0.2,0.2
			c-1.3,1.4-2.3,3.1-2.9,4.8c-0.6,1.8-0.7,3.6-0.5,5.3c0.1,0.3,0.1,0.6,0.2,0.9l0,0l0,0c0.5,1.8,0.4,2.4,0.3,3.1l0,0l0,0
			c-0.1,1.1,0,2,0.5,2.5c0,0,0.1,0.1,0.1,0.1l0,0l0,0c0,0,0.1,0.1,0.1,0.1c0.4,0.4,1,0.6,1.8,0.6c0.2,0,0.5,0,0.8-0.1l0,0l0,0
			c0.3-0.1,0.6-0.1,1-0.1c0.5,0,1.2,0.1,2.1,0.3l0,0l0,0c0.3,0.1,0.6,0.1,0.9,0.2c0.5,0.1,1,0.1,1.5,0.1c3.1,0,6.2-1.3,8.6-3.6
			c0.1-0.1,0.1-0.1,0.2-0.2c0,0,0,0,0,0c0,0,0,0,0,0c0.1-0.1,0.1-0.1,0.2-0.2c1.3-1.4,2.3-3.1,2.9-4.8c0.6-1.8,0.7-3.6,0.5-5.3
			c-0.1-0.3-0.1-0.6-0.2-0.9l0,0l0,0c-0.5-1.8-0.4-2.4-0.3-3.1l0,0l0,0c0.1-1.1,0-2-0.5-2.5c0,0-0.1-0.1-0.1-0.1l0,0l0,0
			c0,0-0.1,0-0.1-0.1c-0.4-0.4-1-0.6-1.8-0.6c-0.2,0-0.5,0-0.8,0.1l0,0l0,0c-0.3,0.1-0.6,0.1-1,0.1c-0.5,0-1.2-0.1-2.1-0.3l0,0l0,0
			c-0.3-0.1-0.6-0.1-0.9-0.2C53.2,19.3,52.7,19.2,52.2,19.2L52.2,19.2z"/>
	</g>
</g>
<g>
	<g>
		<path class="st2" d="M65.8,20.9c0-0.4-0.2-0.9-0.6-1.1l-28-19.7c-0.3-0.2-0.8-0.3-1.1-0.1c-0.4,0.2-0.6,0.6-0.6,1l0,8.8L6.9,30.3
			l-0.2,0C6.4,30.5,6,30.9,6,31.2v0v20.1v0c0,0.4,0.4,0.7,0.7,0.9l0.2,0l28,19.6c0.5,0.4,1.3,0,1.3-0.6l0-8.3l29.2-20.8
			c0.4-0.3,0.6-0.7,0.6-1.1L65.8,20.9z M36.4,0.5c0.1,0,0.1,0,0.2,0C36.5,0.5,36.5,0.5,36.4,0.5z M37.5,59.9L37.2,2.2l26.8,18.8
			l0.1,19.8L37.5,59.9z"/>
		<g>
			<path class="st0" d="M15.5,51.2c0,0-0.1,0-0.1,0s0-0.1,0-0.1l0.3-1.3l-0.1-16.3l-0.3-1.2c0,0,0-0.1,0-0.1c0,0,0.1-0.1,0.1-0.1
				l6.7-1.2c2.7-0.5,4.7,0,5.8,1.4c1,1.2,1.1,2.8,1.1,3.7c0,0.9-0.1,2.6-1.1,4.1c-1.1,1.8-3.1,3-5.8,3.5l-1.9,0.3l0,6.3
				c0,0.1-0.1,0.2-0.2,0.2L15.5,51.2z M20.2,39.4l2-0.4c1.4-0.3,2.1-1,2.1-2.3c0-0.5,0-1.9-2.1-1.5l-2,0.4L20.2,39.4z"/>
		</g>
	</g>
</g>
<g>
	<path class="st1" d="M60.7,33.2c-0.2-0.5-0.7-0.8-1.3-1c-0.7-0.2-1.2-0.4-2.4-1.6c-0.2-0.2-0.4-0.3-0.5-0.5
		c-2.1-1.7-5.1-2.3-8.1-1.5c-0.1,0-0.1,0-0.2,0c0,0,0,0,0,0c0,0,0,0,0,0c-0.1,0-0.1,0-0.2,0.1c-2.9,0.9-5.2,3-6.2,5.5
		c-0.1,0.2-0.2,0.5-0.2,0.7c-0.4,1.6-0.8,2-1.2,2.6c-0.4,0.5-0.6,1-0.5,1.5c0,0,0,0,0,0.1l0,0l0,0c0,0,0,0,0,0.1
		c0.2,0.5,0.7,0.8,1.3,1c0.7,0.2,1.2,0.4,2.4,1.6c0.2,0.2,0.4,0.3,0.5,0.5c2.1,1.7,5.1,2.3,8.1,1.5c0.1,0,0.1,0,0.2,0c0,0,0,0,0,0
		c0,0,0,0,0,0c0.1,0,0.1,0,0.2-0.1c2.9-0.9,5.2-3,6.2-5.5c0.1-0.2,0.2-0.5,0.2-0.7c0.4-1.6,0.8-2,1.2-2.6c0.4-0.5,0.6-1,0.5-1.5
		C60.8,33.3,60.8,33.3,60.7,33.2L60.7,33.2L60.7,33.2C60.8,33.3,60.7,33.3,60.7,33.2z"/>
	<g id="LEMON_3_">
		<path id="lemon_10_" class="st2" d="M51,28.3c2.1,0,4.1,0.7,5.5,1.8c0.2,0.2,0.4,0.3,0.5,0.5c1.2,1.1,1.7,1.4,2.4,1.6
			c0.6,0.2,1.1,0.6,1.3,1c0,0,0,0,0,0.1l0,0l0,0c0,0,0,0,0,0.1c0.1,0.5-0.2,1-0.5,1.5c-0.4,0.5-0.8,1-1.2,2.6
			c-0.1,0.2-0.1,0.5-0.2,0.7c-0.9,2.5-3.2,4.6-6.2,5.5c-0.1,0-0.1,0-0.2,0.1c0,0,0,0,0,0c0,0,0,0,0,0c-0.1,0-0.1,0-0.2,0
			c-0.9,0.2-1.7,0.3-2.6,0.3c-2.1,0-4.1-0.7-5.5-1.8c-0.2-0.2-0.4-0.3-0.5-0.5c-1.2-1.1-1.7-1.4-2.4-1.6c-0.6-0.2-1.1-0.6-1.3-1
			c0,0,0,0,0-0.1l0,0l0,0c0,0,0,0,0-0.1c-0.1-0.5,0.2-1,0.5-1.5c0.4-0.5,0.8-1,1.2-2.6c0.1-0.2,0.1-0.5,0.2-0.7
			c0.9-2.5,3.2-4.6,6.2-5.5c0.1,0,0.1,0,0.2-0.1c0,0,0,0,0,0c0,0,0,0,0,0c0.1,0,0.1,0,0.2,0C49.3,28.4,50.2,28.3,51,28.3 M43,36.8
			c0,0,0.1,0,0.1,0c0.1,0,0.2-0.1,0.3-0.3c0-0.1,0.1-0.3,0.1-0.5c0,0,0,0,0,0c0.1-0.2,0.1-0.4,0.2-0.6c0-0.2,0.1-0.3,0.2-0.5
			c0.8-2,2.6-3.6,5-4.3c0.2-0.1,0.4-0.3,0.3-0.5c-0.1-0.2-0.2-0.3-0.4-0.3c0,0-0.1,0-0.1,0c-2.6,0.8-4.7,2.6-5.5,4.8
			c-0.1,0.2-0.1,0.4-0.2,0.6c-0.1,0.2-0.1,0.4-0.2,0.5c0,0,0,0,0,0c0,0.1-0.1,0.3-0.1,0.4c-0.1,0.2,0,0.5,0.3,0.5
			C42.9,36.8,42.9,36.8,43,36.8 M51,27.5c-0.9,0-1.8,0.1-2.7,0.3c-0.1,0-0.1,0-0.2,0.1c0,0,0,0,0,0c0,0,0,0,0,0
			c-0.1,0-0.1,0-0.2,0.1c-1.5,0.5-3,1.2-4.1,2.3c-1.2,1-2,2.3-2.5,3.6c-0.1,0.2-0.2,0.5-0.2,0.8l0,0l0,0c-0.4,1.4-0.7,1.8-1.1,2.3
			l0,0l0,0c-0.6,0.8-0.8,1.5-0.7,2.1c0,0,0,0.1,0,0.1l0,0l0,0c0,0,0,0,0,0l0,0c0,0,0,0.1,0,0.1c0.2,0.6,0.8,1.1,1.7,1.5l0,0l0,0
			c0.6,0.2,1,0.4,2.1,1.4l0,0l0,0c0.2,0.2,0.4,0.4,0.6,0.5c1.6,1.3,3.8,2,6,2c0.9,0,1.8-0.1,2.7-0.3c0.1,0,0.1,0,0.2-0.1
			c0,0,0,0,0,0c0,0,0,0,0,0c0.1,0,0.1,0,0.2-0.1c1.5-0.5,3-1.2,4.1-2.3c1.2-1,2-2.3,2.5-3.6c0.1-0.3,0.2-0.5,0.2-0.8l0,0l0,0
			c0.4-1.4,0.7-1.8,1.1-2.3l0,0l0,0c0.6-0.8,0.8-1.5,0.7-2.1c0,0,0-0.1,0-0.1l0,0l0,0c0,0,0,0,0,0c0,0,0-0.1,0-0.1
			c-0.2-0.6-0.8-1.1-1.7-1.5l0,0l0,0c-0.6-0.2-1-0.4-2.1-1.4l0,0l0,0c-0.2-0.2-0.4-0.4-0.6-0.5C55.4,28.2,53.3,27.5,51,27.5L51,27.5
			z"/>
	</g>
</g>
</svg>
